<?xml version="1.0" encoding="UTF-8" standalone="no"?>
<svg
   xmlns:dc="http://purl.org/dc/elements/1.1/"
   xmlns:cc="http://creativecommons.org/ns#"
   xmlns:rdf="http://www.w3.org/1999/02/22-rdf-syntax-ns#"
   xmlns:svg="http://www.w3.org/2000/svg"
   xmlns="http://www.w3.org/2000/svg"
   xmlns:sodipodi="http://sodipodi.sourceforge.net/DTD/sodipodi-0.dtd"
   xmlns:inkscape="http://www.inkscape.org/namespaces/inkscape"
   version="1.1"
   id="Capa_1"
   x="0px"
   y="0px"
   width="284.929px"
   height="284.929px"
   viewBox="0 0 284.929 284.929"
   style="enable-background:new 0 0 284.929 284.929;"
   xml:space="preserve"
   sodipodi:docname="go_up.svg"
   inkscape:version="1.0.1 (3bc2e813f5, 2020-09-07)"><metadata
   id="metadata45"><rdf:RDF><cc:Work
       rdf:about=""><dc:format>image/svg+xml</dc:format><dc:type
         rdf:resource="http://purl.org/dc/dcmitype/StillImage" /></cc:Work></rdf:RDF></metadata><defs
   id="defs43" /><sodipodi:namedview
   pagecolor="#ffffff"
   bordercolor="#666666"
   borderopacity="1"
   objecttolerance="10"
   gridtolerance="10"
   guidetolerance="10"
   inkscape:pageopacity="0"
   inkscape:pageshadow="2"
   inkscape:window-width="687"
   inkscape:window-height="480"
   id="namedview41"
   showgrid="false"
   inkscape:zoom="0.44221545"
   inkscape:cx="96.543846"
   inkscape:cy="253.03567"
   inkscape:window-x="0"
   inkscape:window-y="0"
   inkscape:window-maximized="0"
   inkscape:current-layer="Capa_1" />
<g
   id="g8"
   style="fill:#ffffff">
	<g
   id="g6"
   style="fill:#ffffff">
		<path
   d="M17.128,167.872c1.903,1.902,4.093,2.854,6.567,2.854c2.474,0,4.664-0.952,6.567-2.854L142.466,55.666l112.208,112.206    c1.902,1.902,4.093,2.854,6.563,2.854c2.478,0,4.668-0.952,6.57-2.854l14.274-14.277c1.902-1.902,2.847-4.093,2.847-6.563    c0-2.475-0.951-4.665-2.847-6.567L149.028,7.419c-1.901-1.906-4.088-2.853-6.562-2.853s-4.665,0.95-6.567,2.853L2.856,140.464    C0.95,142.367,0,144.554,0,147.034c0,2.468,0.953,4.658,2.856,6.561L17.128,167.872z"
   id="path2"
   style="fill:#ffffff" />
		<path
   d="M149.028,117.055c-1.901-1.906-4.088-2.856-6.562-2.856s-4.665,0.953-6.567,2.856L2.856,250.1    C0.95,252.003,0,254.192,0,256.67c0,2.472,0.953,4.661,2.856,6.564l14.272,14.276c1.903,1.903,4.093,2.848,6.567,2.848    c2.474,0,4.664-0.951,6.567-2.848l112.204-112.209l112.208,112.209c1.902,1.903,4.093,2.852,6.563,2.852    c2.478,0,4.668-0.948,6.57-2.852l14.274-14.276c1.902-1.903,2.847-4.093,2.847-6.564c0-2.478-0.951-4.667-2.847-6.57    L149.028,117.055z"
   id="path4"
   style="fill:#ffffff" />
	</g>
</g>
<g
   id="g10">
</g>
<g
   id="g12">
</g>
<g
   id="g14">
</g>
<g
   id="g16">
</g>
<g
   id="g18">
</g>
<g
   id="g20">
</g>
<g
   id="g22">
</g>
<g
   id="g24">
</g>
<g
   id="g26">
</g>
<g
   id="g28">
</g>
<g
   id="g30">
</g>
<g
   id="g32">
</g>
<g
   id="g34">
</g>
<g
   id="g36">
</g>
<g
   id="g38">
</g>
</svg>
